<?xml version="1.0" encoding="UTF-8"?>
<svg id="_レイヤー_1" data-name="レイヤー 1" xmlns="http://www.w3.org/2000/svg" viewBox="0 0 741.49 846.22">
  <defs>
    <style>
      .cls-1 {
        fill: #313333;
      }
    </style>
  </defs>
  <path id="Symbol1" class="cls-1" d="M43.69,430.97c-111.13-107.85,9.05-270.26,144.63-361.15C273.39,12.8,376.7-11.57,477.74,5.2c326.7,54.22,405.51,479.4-86.68,517.75h0c-159.16,387.65,217.74,313.89-123.37,323.06-.6.02-1.12-.42-1.19-1.02-19.32-168.79,260.46-527.31,7.61-609.94-3.26-1.07-3.2-5.69.1-6.63,52.96-15.13,185.37-79.19,183.61-3.35-.23,10.08-3.45,19.84-8.62,28.5-93.97,157.49,47.69,271.46,150.54,179.87,26.42-23.53,43.86-55.53,50.6-90.26C702.16,76.21,436.77-88.62,191.45,100.82c-54.05,41.74-137.89,118.26-144.7,328.89-.05,1.56-1.93,2.36-3.05,1.27Z"/>
</svg>